<svg viewBox="0 0 24 24"><path d="M4.87902 9.92088L1.9049 12.895C0.685212 14.1147 0 15.7689 0 17.4938C0 19.2187 0.685212 20.873 1.9049 22.0927C3.12458 23.3123 4.77883 23.9976 6.50373 23.9976C8.22863 23.9976 9.88287 23.3123 11.1026 22.0927L15.0652 18.1279C15.8007 17.3923 16.349 16.491 16.6641 15.4996C16.9791 14.5083 17.0518 13.4558 16.876 12.4305C16.7002 11.4053 16.281 10.4372 15.6536 9.60744C15.0261 8.77772 14.2089 8.11061 13.2703 7.66211L12 8.9324C11.871 9.06158 11.7589 9.20651 11.6662 9.36377C12.3913 9.57224 13.0495 9.96636 13.5757 10.5072C14.1019 11.048 14.4778 11.7167 14.6663 12.4473C14.8548 13.1779 14.8494 13.9451 14.6505 14.6729C14.4517 15.4008 14.0664 16.0642 13.5326 16.5975L9.57215 20.5601C8.75864 21.3736 7.65529 21.8306 6.50481 21.8306C5.35434 21.8306 4.25099 21.3736 3.43748 20.5601C2.62397 19.7466 2.16695 18.6432 2.16695 17.4927C2.16695 16.3423 2.62397 15.2389 3.43748 14.4254L5.15649 12.7086C4.91395 11.7997 4.82025 10.8575 4.87902 9.91871V9.92088Z"></path><path d="M7.04025 10.8268L7.40226 10.4648C7.93932 9.92574 8.60941 9.53835 9.34454 9.34191C9.54098 8.60677 9.92838 7.93668 10.4674 7.39962L10.8294 7.03761C9.73899 6.9763 8.65065 7.19025 7.66455 7.65975C7.18765 8.6569 6.97955 9.74727 7.04025 10.8246V10.8268Z"></path><path d="M8.93484 5.8675C8.19934 6.6031 7.65103 7.50441 7.33594 8.49577C7.02085 9.48712 6.94817 10.5396 7.124 11.5649C7.29983 12.5901 7.71905 13.5582 8.34645 14.388C8.97385 15.2177 9.79114 15.8848 10.7297 16.3333L12.4097 14.6511C11.6747 14.454 11.0046 14.0669 10.4666 13.5287C9.92866 12.9905 9.54183 12.3202 9.34499 11.5851C9.14816 10.8501 9.14826 10.0762 9.34528 9.34117C9.54231 8.60616 9.92932 7.93596 10.4674 7.39792L14.4279 3.43531C15.2414 2.62181 16.3447 2.16478 17.4952 2.16478C18.6457 2.16478 19.749 2.62181 20.5625 3.43531C21.376 4.24882 21.8331 5.35217 21.8331 6.50265C21.8331 7.65312 21.376 8.75647 20.5625 9.56998L18.8435 11.2868C19.0863 12.1973 19.1795 13.1402 19.121 14.0767L22.0951 11.1026C23.3148 9.88287 24 8.22863 24 6.50373C24 4.77883 23.3148 3.12458 22.0951 1.9049C20.8754 0.685213 19.2212 0 17.4963 0C15.7714 0 14.1171 0.685213 12.8974 1.9049L8.93484 5.8675Z"></path><path d="M16.3355 16.3328C16.807 15.3474 17.0217 14.2587 16.9598 13.168L16.5978 13.53C16.0607 14.069 15.3906 14.4564 14.6555 14.6529C14.459 15.388 14.0716 16.0581 13.5326 16.5951L13.1706 16.9572C14.261 17.0185 15.3494 16.8045 16.3355 16.335V16.3328Z"></path></svg>