<svg width="159" height="97" viewBox="0 0 159 97" fill="none" xmlns="http://www.w3.org/2000/svg">
<g clip-path="url(#clip0)">
<path d="M71.5019 8.80338C54.2534 9.36638 40.2294 23.3904 39.6664 40.6389C39.3593 50.1588 43.0956 58.8086 49.2887 65.0017L95.8648 18.4257C89.6717 12.2326 81.0218 8.49628 71.5019 8.80338ZM62.5962 65.0017C68.7892 71.1948 77.4391 74.9311 86.959 74.624C104.207 74.061 118.231 60.037 118.795 42.7885C119.102 33.2686 115.365 24.6188 109.172 18.4257L62.5962 65.0017Z" fill="#D74022"/>
<path d="M121.968 77.8485L115.468 71.2972L145.051 41.7137L115.468 12.1814L121.968 5.63007L158.051 41.7137L121.968 77.8485ZM36.0836 77.8485L0 41.7137L36.0836 5.63007L42.5838 12.1814L13.0515 41.7137L42.5838 71.2972L36.0836 77.8485Z" fill="#4D4D4F"/>
<path d="M65.8207 5.57889C65.8207 4.81115 65.8207 4.04341 65.8718 3.27568C65.923 2.55912 66.2813 1.68902 66.0254 0.972466C65.6159 -0.307095 63.8245 -0.358278 63.2104 0.818919C62.2891 3.12213 61.9308 5.52771 61.982 7.98446C58.5527 9.6223 53.281 9.00811 49.6982 7.8821C52.3085 9.9294 55.4306 11.3113 58.911 11.7208C55.5842 13.2563 52.5132 15.3036 49.9029 17.8115C56.9149 13.1027 66.486 13.9216 72.6279 19.7052C71.9626 17.3509 70.8365 15.2524 69.3522 13.4098C73.0886 10.7483 77.695 9.6223 82.1991 10.1853C78.6163 9.11048 74.9311 8.64984 71.1948 8.7522C72.8327 7.67737 74.2658 6.34662 75.443 4.81115C72.2185 6.60254 69.6082 6.90963 65.9742 7.06318C65.923 6.75608 65.8718 5.93716 65.8207 5.57889Z" fill="#95D600"/>
</g>
<path d="M43.2376 94.6589V94.919H42.4052H41.885H41.0526V94.7109C41.0526 94.6068 41.1046 94.5028 41.2607 94.5028H41.3127C41.3647 94.5028 41.4167 94.5028 41.5208 94.5028C41.6248 94.5028 41.7289 94.5028 41.885 94.5028V89.6644C41.7809 89.6644 41.6769 89.6644 41.6248 89.6644C41.5208 89.6644 41.4688 89.6644 41.4688 89.6644C41.4167 89.6644 41.4167 89.6644 41.3647 89.6644H41.3127C41.1566 89.6644 41.1046 89.6124 41.1046 89.4563V89.1962H41.937H42.4572V94.4508C42.5613 94.4508 42.6653 94.4508 42.7174 94.4508C42.8214 94.4508 42.8734 94.4508 42.8734 94.4508C42.9255 94.4508 42.9255 94.4508 42.9775 94.4508H43.0295C43.1856 94.4508 43.2376 94.5548 43.2376 94.6589ZM41.6769 87.4273C41.6769 87.3753 41.6248 87.3233 41.6248 87.2192C41.6248 87.1672 41.6248 87.0631 41.6769 87.0111C41.7289 86.9591 41.7289 86.907 41.7809 86.855C41.8329 86.803 41.885 86.751 41.937 86.751C41.989 86.751 42.041 86.6989 42.1451 86.6989C42.1971 86.6989 42.3012 86.6989 42.3532 86.751C42.4052 86.803 42.4572 86.803 42.5093 86.855C42.5613 86.907 42.6133 86.9591 42.6133 87.0631C42.6653 87.1151 42.6653 87.1672 42.6653 87.2192C42.6653 87.2712 42.6653 87.3753 42.6133 87.4273C42.6133 87.4793 42.5613 87.5314 42.5093 87.5834C42.4572 87.6354 42.4052 87.6874 42.3532 87.6874C42.3012 87.7395 42.1971 87.7395 42.1451 87.7395C42.0931 87.7395 41.989 87.7395 41.937 87.6874C41.885 87.6354 41.8329 87.6354 41.7809 87.5834C41.7289 87.5314 41.7289 87.4793 41.6769 87.4273Z" fill="#D74022"/>
<path d="M48.2321 88.9881C48.8564 88.9881 49.3246 89.1962 49.6888 89.6124C50.0009 90.0286 50.209 90.5488 50.209 91.2252V94.0866C50.5732 94.1386 50.7813 94.1906 50.8854 94.2426C50.9894 94.2426 51.0415 94.3467 51.0415 94.4507V94.919H49.2206V91.2252C49.2206 90.2887 48.8044 89.8205 48.024 89.8205C47.4517 89.8205 46.9314 90.0806 46.4632 90.6529V94.0866L46.6193 94.1386C46.9314 94.1906 47.0875 94.2426 47.1395 94.2426C47.2436 94.2426 47.2956 94.3467 47.2956 94.4507V94.919H44.5383V94.3987C44.5383 94.2947 44.5903 94.1906 44.6943 94.1906L45.3707 94.0345V87.2712C44.9024 87.2192 44.6423 87.1672 44.5903 87.1672C44.4862 87.1672 44.4342 87.0631 44.4342 86.9591V86.4388H46.4112V89.8725C46.9314 89.3002 47.5557 88.9881 48.2321 88.9881Z" fill="#D74022"/>
<path d="M57.2325 94.3987V94.8669H56.5041H56.4001H56.0359C55.9319 94.8669 55.8798 94.8669 55.7758 94.8149C55.7238 94.7629 55.6717 94.7109 55.6717 94.6068L55.5677 94.0866C55.4116 94.2426 55.2555 94.3467 55.0994 94.4507C54.9434 94.5548 54.7873 94.6588 54.6312 94.7109C54.4751 94.7629 54.3191 94.8669 54.111 94.8669C53.9549 94.919 53.7468 94.919 53.4867 94.919C53.2786 94.919 53.0705 94.8669 52.8623 94.8149C52.6542 94.7629 52.4982 94.6588 52.3421 94.5548C52.186 94.4507 52.082 94.2947 51.9779 94.0866C51.9259 93.9305 51.9259 93.6704 51.9259 93.4102C51.9259 93.2021 51.9779 92.942 52.134 92.7339C52.238 92.5258 52.4461 92.3177 52.7583 92.1616C53.0705 92.0055 53.3826 91.8495 53.8508 91.7454C54.3191 91.6414 54.8393 91.5893 55.5157 91.5893V91.1211C55.5157 90.6529 55.4116 90.3407 55.2035 90.0806C54.9954 89.8725 54.7353 89.7164 54.3711 89.7164C54.111 89.7164 53.9029 89.7684 53.7468 89.8205C53.5907 89.8725 53.4346 89.9765 53.3306 90.0286C53.2265 90.1326 53.1225 90.1846 53.0184 90.2367C52.9144 90.2887 52.8623 90.3407 52.7583 90.3407C52.7063 90.3407 52.6542 90.3407 52.6022 90.2887C52.5502 90.2367 52.4982 90.1846 52.4982 90.1326L52.2901 89.8205C52.6022 89.5083 52.9664 89.3002 53.3306 89.1441C53.6948 88.9881 54.111 88.936 54.5792 88.936C54.8913 88.936 55.2035 88.9881 55.4636 89.0921C55.7238 89.1962 55.9319 89.3522 56.0879 89.5603C56.244 89.7684 56.4001 89.9765 56.4521 90.2367C56.5562 90.4968 56.6082 90.809 56.6082 91.1211V94.0345C56.7643 94.0866 57.0764 94.1386 57.1805 94.1386C57.1284 94.1906 57.2325 94.2947 57.2325 94.3987ZM55.4636 92.2657C54.9954 92.2657 54.5792 92.3177 54.267 92.3697C53.9549 92.4217 53.6948 92.5258 53.4867 92.5778C53.2786 92.6819 53.1225 92.7859 53.0184 92.942C52.9144 93.0981 52.8623 93.2021 52.8623 93.3582C52.8623 93.5143 52.8623 93.6183 52.9144 93.7744C52.9664 93.9305 53.0184 93.9825 53.1225 94.0345C53.2265 94.0866 53.3306 94.1386 53.4346 94.1906C53.5387 94.2426 53.6948 94.2426 53.7988 94.2426C53.9549 94.2426 54.163 94.2426 54.267 94.1906C54.4231 94.1386 54.5792 94.0866 54.6832 94.0345C54.8393 93.9825 54.9434 93.8785 55.0474 93.7744C55.1515 93.6704 55.3075 93.5663 55.4116 93.4623V92.2657H55.4636Z" fill="#D74022"/>
<path d="M58.9493 94.6068C58.6892 94.3467 58.5852 93.9825 58.5852 93.5143V89.9245H57.9088C57.8568 89.9245 57.8048 89.9245 57.7527 89.8725C57.7007 89.8205 57.6487 89.8205 57.6487 89.7164V89.3002L58.5852 89.1961L58.8453 87.4273C58.8453 87.3753 58.8973 87.3232 58.8973 87.2712C58.8973 87.2192 59.0014 87.2192 59.0534 87.2192H59.5736V89.1961H61.2385V89.9245H59.5736V93.4102C59.5736 93.6703 59.6257 93.8264 59.7297 93.9305C59.8338 94.0345 59.9898 94.0866 60.198 94.0866C60.302 94.0866 60.4061 94.0866 60.4581 94.0345C60.5621 93.9825 60.6142 93.9825 60.6662 93.9305C60.7182 93.8784 60.7702 93.8784 60.8223 93.8264C60.8743 93.7744 60.8743 93.7744 60.9263 93.7744C60.9783 93.7744 61.0304 93.8264 61.0824 93.8784L61.3945 94.3467C61.2385 94.5028 61.0304 94.6588 60.7702 94.7109C60.5101 94.8149 60.25 94.8669 59.9898 94.8669C59.5216 94.971 59.1574 94.8669 58.9493 94.6068Z" fill="#D74022"/>
<path d="M65.6606 89.1962C65.9728 89.3002 66.2329 89.4563 66.441 89.7164C66.6491 89.9765 66.8052 90.1846 66.9613 90.5488C67.0653 90.861 67.1174 91.2252 67.1174 91.6414C67.1174 91.7974 67.1174 91.9015 67.0653 91.9535C67.0133 92.0055 66.9613 92.0576 66.8572 92.0576H63.0073C63.0073 92.4217 63.0594 92.7339 63.1634 92.994C63.2675 93.2542 63.3715 93.5143 63.5276 93.6704C63.6837 93.8264 63.8918 93.9825 64.0999 94.0866C64.308 94.1906 64.5681 94.2426 64.8282 94.2426C65.0884 94.2426 65.2965 94.1906 65.5046 94.1386C65.7127 94.0866 65.8687 94.0345 65.9728 93.9305C66.1289 93.8785 66.2329 93.7744 66.2849 93.7224C66.389 93.6704 66.441 93.6183 66.493 93.6183C66.5971 93.6183 66.6491 93.6704 66.7011 93.7224L66.9613 94.0866C66.8572 94.2426 66.7011 94.3467 66.493 94.5028C66.337 94.6068 66.1289 94.7109 65.9208 94.7629C65.7127 94.8149 65.5046 94.8669 65.2965 94.919C65.0884 94.971 64.8803 94.971 64.6721 94.971C64.2559 94.971 63.8918 94.919 63.5796 94.7629C63.2675 94.6068 62.9553 94.4507 62.6952 94.1906C62.4351 93.9305 62.279 93.6183 62.1229 93.2021C61.9668 92.838 61.9148 92.3697 61.9148 91.8495C61.9148 91.4333 61.9668 91.0691 62.1229 90.7049C62.279 90.3407 62.435 90.0286 62.6432 89.7684C62.8513 89.5083 63.1634 89.3002 63.4756 89.1441C63.7877 88.9881 64.2039 88.936 64.6201 88.936C65.0363 88.9881 65.3485 89.0401 65.6606 89.1962ZM63.5796 90.1846C63.3195 90.4448 63.1114 90.861 63.0594 91.3812H66.2329C66.2329 91.1211 66.1809 90.913 66.1289 90.7569C66.0768 90.5488 65.9728 90.3928 65.8167 90.2367C65.7127 90.0806 65.5566 89.9765 65.3485 89.9245C65.1404 89.8725 64.9843 89.8205 64.7242 89.8205C64.2559 89.7684 63.8397 89.8725 63.5796 90.1846Z" fill="#D74022"/>
<path d="M69.0943 94.5548C68.8342 94.2426 68.6781 93.8785 68.6781 93.3582V90.0806H68.1058C68.0538 90.0806 67.9498 90.0806 67.8977 90.0286C67.8457 89.9765 67.7937 89.9245 67.7937 89.8205V89.2482L68.7301 89.0921L69.0423 87.4793C69.0423 87.4273 69.0943 87.3232 69.1463 87.3232C69.1984 87.2712 69.2504 87.2712 69.3545 87.2712H70.1348V89.1441H71.6956V90.1326H70.1348V93.3062C70.1348 93.5143 70.1869 93.6183 70.2909 93.7224C70.395 93.8264 70.499 93.8785 70.6551 93.8785C70.7591 93.8785 70.8112 93.8785 70.8632 93.8264C70.9152 93.7744 70.9672 93.7744 71.0193 93.7744C71.0713 93.7744 71.1233 93.7224 71.1233 93.7224C71.1753 93.7224 71.1753 93.6704 71.2274 93.6704C71.2794 93.6704 71.2794 93.6704 71.3314 93.7224C71.3834 93.7224 71.3834 93.7744 71.4355 93.8264L71.8517 94.5028C71.6436 94.6588 71.3835 94.8149 71.1233 94.8669C70.8632 94.971 70.6031 95.023 70.2909 95.023C69.7707 94.971 69.4065 94.8669 69.0943 94.5548Z" fill="#D74022"/>
<path d="M76.3779 89.1441C76.7421 89.3002 77.0542 89.5083 77.3144 89.7684C77.5745 90.0286 77.7826 90.3407 77.8866 90.7049C77.9907 91.0691 78.0947 91.4853 78.0947 91.9535C78.0947 92.4217 78.0427 92.838 77.8866 93.2021C77.7306 93.5663 77.5745 93.8785 77.3144 94.1386C77.0542 94.3987 76.7421 94.6068 76.3779 94.7629C76.0137 94.919 75.5975 94.971 75.1813 94.971C74.7651 94.971 74.3489 94.919 73.9847 94.7629C73.6205 94.6068 73.3084 94.3987 73.0483 94.1386C72.7881 93.8785 72.58 93.5663 72.476 93.2021C72.3719 92.838 72.2679 92.4217 72.2679 91.9535C72.2679 91.4853 72.3199 91.0691 72.476 90.7049C72.6321 90.3407 72.7881 90.0286 73.0483 89.7684C73.3084 89.5083 73.6205 89.3002 73.9847 89.1441C74.3489 88.9881 74.7651 88.936 75.1813 88.936C75.6495 88.936 76.0137 88.9881 76.3779 89.1441ZM76.2739 93.4102C76.534 93.0981 76.638 92.5778 76.638 91.9535C76.638 91.3292 76.534 90.861 76.2739 90.4968C76.0137 90.1326 75.7016 89.9765 75.1813 89.9765C74.6611 89.9765 74.2969 90.1326 74.0888 90.4968C73.8287 90.809 73.7246 91.3292 73.7246 91.9535C73.7246 92.5778 73.8287 93.0461 74.0888 93.4102C74.3489 93.7224 74.7131 93.9305 75.1813 93.9305C75.7016 93.8785 76.0137 93.7224 76.2739 93.4102Z" fill="#D74022"/>
<path d="M88.708 94.2426V94.919H87.8235H86.4188V91.1731C86.4188 90.809 86.3148 90.4968 86.1587 90.3407C86.0026 90.1326 85.7425 90.0806 85.4304 90.0806C85.2743 90.0806 85.1702 90.0806 85.0142 90.1326C84.9101 90.1846 84.806 90.2367 84.702 90.3407C84.5979 90.4448 84.5459 90.5488 84.4939 90.7049C84.4419 90.861 84.3898 91.0171 84.3898 91.1731V93.7744C84.5459 93.7744 84.65 93.8264 84.702 93.8264C84.806 93.8264 84.8581 93.8264 84.8581 93.8785C84.9101 93.8785 84.9101 93.8785 84.9101 93.8785C85.1182 93.9305 85.2223 94.0345 85.2223 94.2426V94.919H84.3378H82.9331V91.1731C82.9331 90.7569 82.8291 90.4968 82.673 90.3407C82.5169 90.1846 82.2568 90.0806 81.9967 90.0806C81.7886 90.0806 81.5805 90.1326 81.4244 90.2367C81.2683 90.3407 81.0602 90.4968 80.9041 90.6529V93.8264C81.0602 93.8264 81.1643 93.8785 81.2163 93.8785C81.2683 93.8785 81.3724 93.8785 81.3724 93.9305C81.4244 93.9305 81.4244 93.9305 81.4244 93.9305C81.6325 93.9825 81.6845 94.0866 81.6845 94.2947V94.919H80.8001H79.3954H78.511V94.2426C78.511 94.0345 78.615 93.9305 78.8231 93.8785H78.8751C78.9272 93.8785 78.9792 93.8785 79.0312 93.8264C79.1353 93.8264 79.2393 93.7744 79.3954 93.7744V90.1326C79.2393 90.1326 79.1353 90.0806 79.0312 90.0806C78.9272 90.0806 78.8751 90.0806 78.8751 90.0286C78.8231 90.0286 78.8231 90.0286 78.8231 90.0286C78.615 89.9765 78.511 89.8725 78.511 89.6644V89.0401H79.3954H80.2798C80.4879 89.0401 80.592 89.1441 80.644 89.3002L80.9041 89.7164C81.0082 89.6124 81.1122 89.5083 81.2163 89.4043C81.3203 89.3002 81.4244 89.2482 81.5805 89.1441C81.6845 89.0921 81.8406 89.0401 81.9967 88.9881C82.1527 88.936 82.3088 88.936 82.4649 88.936C82.8291 88.936 83.1412 89.0401 83.4014 89.2482C83.6615 89.4563 83.8176 89.7164 83.9216 90.0286C84.0257 89.8205 84.1297 89.6644 84.2858 89.5083C84.3898 89.4043 84.5459 89.3002 84.702 89.1962C84.8581 89.0921 85.0662 89.0401 85.2223 88.9881C85.4304 88.936 85.5864 88.936 85.7945 88.936C86.1067 88.936 86.4188 88.9881 86.679 89.0921C86.9391 89.1962 87.1472 89.3002 87.3033 89.5083C87.4594 89.7164 87.6154 89.9245 87.7195 90.1846C87.8235 90.4448 87.8756 90.7569 87.8756 91.1211V93.7224C88.0316 93.7224 88.1357 93.7744 88.2397 93.7744C88.3438 93.7744 88.3958 93.7744 88.3958 93.8264C88.3958 93.8785 88.4478 93.8264 88.4478 93.8264C88.6039 93.8785 88.708 94.0345 88.708 94.2426Z" fill="#D74022"/>
<path d="M95.0551 94.1906V94.8669H94.3267H94.1706H93.7024C93.5463 94.8669 93.4423 94.8669 93.3903 94.8149C93.3382 94.7629 93.2342 94.7109 93.2342 94.5548L93.1301 94.1386C92.9741 94.2947 92.818 94.3987 92.7139 94.5028C92.5579 94.6068 92.4018 94.7109 92.2457 94.7629C92.0896 94.8149 91.9335 94.8669 91.7775 94.919C91.6214 94.971 91.4133 94.971 91.2052 94.971C90.9451 94.971 90.737 94.919 90.5289 94.8669C90.3208 94.8149 90.1127 94.7109 90.0086 94.5548C89.8525 94.3987 89.7485 94.2426 89.6444 94.0345C89.5404 93.8264 89.5404 93.6183 89.5404 93.3582C89.5404 93.1501 89.5924 92.942 89.6964 92.6819C89.8005 92.4738 90.0086 92.2657 90.2687 92.1096C90.5289 91.9535 90.893 91.7974 91.3613 91.6934C91.8295 91.5893 92.3498 91.5373 93.0261 91.5373V91.1731C93.0261 90.7569 92.922 90.4968 92.766 90.2887C92.6099 90.0806 92.3498 90.0286 92.0376 90.0286C91.8295 90.0286 91.6214 90.0806 91.4653 90.1326C91.3092 90.1846 91.2052 90.2367 91.0491 90.2887C90.9451 90.3407 90.841 90.3927 90.737 90.4448C90.6329 90.4968 90.5289 90.5488 90.4248 90.5488C90.3208 90.5488 90.2687 90.5488 90.1647 90.4968C90.1127 90.4448 90.0606 90.3927 90.0086 90.2887L89.7485 89.8205C90.4248 89.1962 91.2052 88.884 92.1937 88.884C92.5579 88.884 92.818 88.936 93.1301 89.0401C93.3903 89.1441 93.6504 89.3002 93.8065 89.5083C94.0146 89.7164 94.1186 89.9245 94.2227 90.2367C94.3267 90.4968 94.3787 90.8089 94.3787 91.1731V93.7744C94.4828 93.7744 94.5869 93.8264 94.6909 93.8264C94.795 93.8264 94.795 93.8264 94.795 93.8264C94.951 93.8785 95.0551 94.0345 95.0551 94.1906ZM92.9741 92.3697C92.5579 92.3697 92.1937 92.3697 91.9335 92.4738C91.6734 92.5258 91.4133 92.5778 91.2572 92.6819C91.1011 92.7859 90.9971 92.8379 90.9451 92.942C90.893 93.046 90.841 93.1501 90.841 93.3062C90.841 93.5663 90.893 93.7224 91.0491 93.8264C91.2052 93.9305 91.4133 93.9825 91.6214 93.9825C91.7775 93.9825 91.8815 93.9825 92.0376 93.9305C92.1417 93.8785 92.2977 93.8785 92.4018 93.8264C92.5058 93.7744 92.6099 93.7224 92.7139 93.6183C92.818 93.5143 92.922 93.4623 93.0261 93.3582V92.3697H92.9741Z" fill="#D74022"/>
<path d="M96.7199 94.5548C96.4598 94.2426 96.3037 93.8785 96.3037 93.3582V90.0806H95.7314C95.6794 90.0806 95.5753 90.0806 95.5233 90.0286C95.4713 89.9765 95.4193 89.9245 95.4193 89.8205V89.2482L96.3557 89.0921L96.6679 87.4793C96.6679 87.4273 96.7199 87.3232 96.7719 87.3232C96.8239 87.2712 96.876 87.2712 96.98 87.2712H97.7084V89.1441H99.2691V90.1326H97.7084V93.3062C97.7084 93.5143 97.7604 93.6183 97.8645 93.7224C97.9685 93.8264 98.0726 93.8785 98.2286 93.8785C98.3327 93.8785 98.3847 93.8785 98.4367 93.8264C98.4888 93.7744 98.5408 93.7744 98.5928 93.7744C98.6448 93.7744 98.6969 93.7224 98.6969 93.7224C98.7489 93.7224 98.7489 93.6704 98.8009 93.6704C98.8529 93.6704 98.8529 93.6704 98.905 93.7224C98.957 93.7224 98.957 93.7744 99.009 93.8264L99.4252 94.5028C99.2171 94.6588 98.957 94.8149 98.6969 94.8669C98.4367 94.971 98.1766 95.023 97.8645 95.023C97.3962 94.971 97.032 94.8669 96.7199 94.5548Z" fill="#D74022"/>
<path d="M104.003 89.1441C104.368 89.3002 104.68 89.5083 104.94 89.7684C105.2 90.0286 105.408 90.3407 105.512 90.7049C105.616 91.0691 105.72 91.4853 105.72 91.9535C105.72 92.4217 105.668 92.838 105.512 93.2021C105.356 93.5663 105.2 93.8785 104.94 94.1386C104.68 94.3987 104.368 94.6068 104.003 94.7629C103.639 94.919 103.223 94.971 102.807 94.971C102.391 94.971 101.974 94.919 101.61 94.7629C101.246 94.6068 100.934 94.3987 100.674 94.1386C100.414 93.8785 100.206 93.5663 100.102 93.2021C99.9975 92.838 99.8935 92.4217 99.8935 91.9535C99.8935 91.4853 99.9455 91.0691 100.102 90.7049C100.258 90.3407 100.414 90.0286 100.674 89.7684C100.934 89.5083 101.246 89.3002 101.61 89.1441C101.974 88.9881 102.391 88.936 102.807 88.936C103.275 88.936 103.639 88.9881 104.003 89.1441ZM103.899 93.4102C104.16 93.0981 104.264 92.5778 104.264 91.9535C104.264 91.3292 104.16 90.861 103.899 90.4968C103.639 90.1326 103.327 89.9765 102.807 89.9765C102.287 89.9765 101.922 90.1326 101.714 90.4968C101.454 90.809 101.35 91.3292 101.35 91.9535C101.35 92.5778 101.454 93.0461 101.714 93.4102C101.974 93.7224 102.339 93.9305 102.807 93.9305C103.327 93.8785 103.691 93.7224 103.899 93.4102Z" fill="#D74022"/>
<path d="M110.351 89.0921C110.663 89.1962 110.923 89.4043 111.131 89.6124C111.339 89.8205 111.547 90.1326 111.651 90.4448C111.755 90.7569 111.859 91.1731 111.859 91.5893C111.859 91.6934 111.859 91.7974 111.859 91.8495C111.859 91.9015 111.807 91.9535 111.807 92.0055C111.807 92.0576 111.755 92.0576 111.703 92.1096C111.651 92.1096 111.599 92.1096 111.547 92.1096H107.905C107.957 92.7339 108.113 93.1501 108.374 93.4623C108.634 93.7224 109.05 93.8785 109.518 93.8785C109.726 93.8785 109.934 93.8264 110.09 93.7744C110.247 93.7224 110.403 93.6704 110.507 93.6183C110.611 93.5663 110.715 93.5143 110.819 93.4623C110.923 93.4102 111.027 93.3582 111.079 93.3582C111.131 93.3582 111.183 93.3582 111.235 93.4102C111.287 93.4102 111.339 93.4623 111.339 93.5143L111.755 94.0345C111.599 94.2426 111.443 94.3467 111.235 94.5028C111.027 94.6588 110.819 94.7109 110.611 94.8149C110.403 94.8669 110.195 94.919 109.986 94.971C109.778 95.023 109.57 95.023 109.362 95.023C108.946 95.023 108.582 94.971 108.218 94.8149C107.853 94.6588 107.541 94.5028 107.281 94.1906C107.021 93.9305 106.813 93.6183 106.657 93.2021C106.501 92.7859 106.449 92.3697 106.449 91.8495C106.449 91.4333 106.501 91.0691 106.657 90.7049C106.761 90.3407 106.969 90.0286 107.229 89.7684C107.489 89.5083 107.749 89.3002 108.113 89.1441C108.478 88.9881 108.842 88.936 109.31 88.936C109.674 88.936 110.038 88.9881 110.351 89.0921ZM108.374 90.2887C108.166 90.4968 108.009 90.861 107.905 91.2772H110.559C110.559 91.0691 110.559 90.913 110.507 90.7569C110.455 90.6009 110.403 90.4448 110.299 90.3407C110.195 90.2367 110.09 90.1326 109.934 90.0286C109.778 89.9245 109.57 89.9245 109.362 89.9245C108.946 89.9245 108.634 90.0806 108.374 90.2887Z" fill="#D74022"/>
<path d="M116.958 93.046C116.958 93.3062 116.906 93.5663 116.802 93.8264C116.698 94.0866 116.542 94.2947 116.334 94.4507C116.125 94.6068 115.865 94.7629 115.605 94.8669C115.293 94.971 114.981 95.023 114.617 95.023C113.888 95.023 113.16 94.8669 112.744 94.7109V94.1386V93.046H112.796H112.952H113.42C113.576 93.046 113.68 93.0981 113.68 93.2541C113.68 93.3062 113.732 93.4622 113.732 93.9305C114.044 94.0345 114.409 94.0345 114.669 94.0345C114.825 94.0345 114.981 94.0345 115.085 93.9825C115.189 93.9305 115.293 93.8785 115.397 93.8264C115.501 93.7744 115.553 93.6704 115.553 93.6183C115.605 93.5143 115.605 93.4622 115.605 93.3582C115.605 93.2021 115.553 93.0981 115.501 93.046C115.397 92.942 115.293 92.89 115.189 92.8379C115.033 92.7859 114.877 92.7339 114.721 92.6819C114.565 92.6298 114.357 92.5778 114.2 92.5258C114.044 92.4738 113.836 92.3697 113.68 92.3177C113.524 92.2136 113.368 92.1096 113.212 92.0055C113.056 91.9015 112.952 91.7454 112.9 91.5373C112.796 91.3292 112.796 91.1211 112.796 90.861C112.796 90.6008 112.848 90.3927 112.952 90.1846C113.056 89.9765 113.212 89.7684 113.368 89.6124C113.576 89.4563 113.784 89.3002 114.044 89.2482C114.305 89.1962 114.617 89.0921 114.981 89.0921C115.553 89.0921 115.865 89.1441 116.698 89.4043V91.0691H116.646H116.49H116.021C115.865 91.0691 115.761 91.017 115.761 90.861C115.761 90.8089 115.709 90.6529 115.709 90.2367C115.553 90.1846 115.293 90.1846 115.033 90.1846C114.773 90.1846 114.513 90.2367 114.357 90.3407C114.2 90.4448 114.096 90.6008 114.096 90.8089C114.096 90.913 114.148 91.017 114.2 91.1211C114.305 91.2251 114.409 91.2772 114.513 91.3292C114.669 91.3812 114.825 91.4333 114.981 91.4853C115.137 91.5373 115.345 91.5893 115.501 91.6414C115.657 91.6934 115.865 91.7974 116.021 91.8495C116.177 91.9015 116.334 92.0055 116.49 92.1616C116.646 92.2657 116.75 92.4217 116.802 92.5778C116.906 92.5778 116.958 92.7859 116.958 93.046Z" fill="#D74022"/>
<defs>
<clipPath id="clip0">
<rect width="158.051" height="77.8485" fill="white"/>
</clipPath>
</defs>
</svg>
